<svg version="1.1" xmlns="http://www.w3.org/2000/svg" xmlns:xlink="http://www.w3.org/1999/xlink" x="0px" y="0px" viewBox="0 0 1000 1000" enable-background="new 0 0 1000 1000" xml:space="preserve">
<g><path d="M862.3,832.5c-70.5,0-127.7-55.7-127.7-124.5c0-68.7,57.2-124.5,127.7-124.5c70.5,0,127.7,55.7,127.7,124.5C990,776.7,932.8,832.5,862.3,832.5z M862.3,542.3c-7.3,0-14.4,0.6-21.4,1.5c0-0.6,0.1-1.2,0.1-1.8c0-130.7-77.3-243.6-189.6-298c12.4-23,19.5-49.2,19.5-77c0-2.2-0.2-4.3-0.3-6.5c150.5,64.2,255.7,210.8,255.7,381.4c0,4.2-0.5,8.3-0.6,12.4C906.1,546.7,884.7,542.3,862.3,542.3z M500.3,291.4c-70.7,0-128-55.9-128-124.8c0-68.9,57.3-124.8,128-124.8c70.7,0,128,55.9,128,124.8C628.3,235.6,571,291.4,500.3,291.4z M159.3,542c0,0.6,0.1,1.2,0.1,1.8c-7-0.9-14.2-1.5-21.4-1.5c-22.3,0-43.5,4.3-63,11.9c-0.1-4.1-0.6-8.2-0.6-12.3c0-170.6,105.1-317,255.4-381.3c-0.1,2.1-0.3,4.2-0.3,6.3c0,27.8,7.1,54,19.5,77C236.6,298.4,159.3,411.3,159.3,542z M265.4,708c0,68.8-57.2,124.5-127.7,124.5S10,776.7,10,708c0-68.7,57.2-124.5,127.7-124.5S265.4,639.2,265.4,708z M281.8,797.5c59.2,48.3,135.3,77.4,218.4,77.4s159.2-29.1,218.4-77.4c15.5,23.8,36.8,43.6,62.3,57.2c-75,64.2-172.9,103.5-280.5,103.5c-107.6,0-205.6-39.3-280.6-103.6C245.1,841,266.3,821.2,281.8,797.5z"/></g>
</svg>