<svg width="16" height="16" viewBox="0 0 16 16" fill="none" xmlns="http://www.w3.org/2000/svg">
<path fill-rule="evenodd" clip-rule="evenodd" d="M8.01887 1.80902C4.71271 1.80902 2.03253 4.4892 2.03253 7.79536C2.03253 11.1015 4.71271 13.7817 8.01887 13.7817C11.325 13.7817 14.0052 11.1015 14.0052 7.79536C14.0052 4.4892 11.325 1.80902 8.01887 1.80902ZM0.671875 7.79536C0.671875 3.73773 3.96124 0.448364 8.01887 0.448364C12.0765 0.448364 15.3659 3.73773 15.3659 7.79536C15.3659 11.853 12.0765 15.1424 8.01887 15.1424C3.96124 15.1424 0.671875 11.853 0.671875 7.79536ZM8.9886 7.78748V8.97395C8.9886 9.34968 9.29319 9.65428 9.66892 9.65428C10.0447 9.65428 10.3493 9.34968 10.3493 8.97395V6.14552C10.3493 5.76979 10.0447 5.46519 9.66892 5.46519H6.8405C6.46476 5.46519 6.16017 5.76979 6.16017 6.14552C6.16017 6.52126 6.46476 6.82585 6.8405 6.82585H8.02596L5.88754 8.96427C5.62185 9.22996 5.62185 9.66072 5.88754 9.9264C6.15322 10.1921 6.58398 10.1921 6.84967 9.9264L8.9886 7.78748Z" fill="#636775"/>
</svg>
