<svg width="21" height="21" viewBox="0 0 21 21" fill="none" xmlns="http://www.w3.org/2000/svg">
<path fill-rule="evenodd" clip-rule="evenodd" d="M3.00592 13.0311L5.25092 10.7853L3.00509 8.51944L0.739258 10.7853L3.00592 13.0311ZM14.6059 9.16361L10.7393 5.29695L6.87259 9.18361L4.60592 6.91861L10.7393 0.785278L16.8726 6.89861L14.6059 9.16361ZM16.2276 10.7853L18.4734 8.51944L20.7584 10.7853L18.4934 13.0511L16.2276 10.7853ZM6.87259 12.3869L10.7393 16.2736L14.6059 12.3869L16.8726 14.6519L10.7393 20.7853L4.60592 14.6528L6.87259 12.3869ZM13.0051 10.7653L10.7393 13.0319V13.0311L8.47342 10.7853L10.7393 8.52028L13.0051 10.7653Z" fill="#F9CA0B"/>
</svg>
