<svg width="82" height="80" viewBox="0 0 82 80" fill="none" xmlns="http://www.w3.org/2000/svg">
<path d="M41 70.9375C58.244 70.9375 72.2666 57.0625 72.2666 40C72.2666 22.9375 58.244 9.0625 41 9.0625C23.756 9.0625 9.7334 22.9375 9.7334 40C9.7334 57.0625 23.756 70.9375 41 70.9375ZM41 11.5625C56.8544 11.5625 69.74 24.3125 69.74 40C69.74 55.6875 56.8544 68.4375 41 68.4375C25.1456 68.4375 12.26 55.6875 12.26 40C12.26 24.3125 25.1456 11.5625 41 11.5625Z" fill="white"/>
<path d="M69.0449 72.75V63.5L66.8973 65.625C55.5908 76.8125 38.4731 79.4375 24.261 72.25L23.124 74.5C28.8089 77.375 34.9359 78.8125 40.9997 78.8125C50.2218 78.8125 59.2543 75.5625 66.5183 69.4375V72.8125H69.0449V72.75Z" fill="white"/>
<path d="M7.90118 65.25V67.75H17.2496L15.102 65.625C3.85863 54.5625 1.14253 37.6875 8.28017 23.6875L6.00623 22.5625C-1.1314 36.625 1.01621 53.4375 11.3121 65.25H7.90118Z" fill="white"/>
<path d="M73.6562 56.4375L75.9302 57.5625C83.1942 43.4375 81.0465 26.5625 70.6875 14.6875H77.2566V12.1875H64.75L66.8976 14.375C78.141 25.5 80.857 42.4375 73.6562 56.4375Z" fill="white"/>
<path d="M57.6117 7.6875L58.7487 5.4375C44.4734 -1.75 27.4189 0.375001 15.4807 10.625V7.25H12.9541V16.5L15.1017 14.375C26.3451 3.25 43.4628 0.562501 57.6117 7.6875Z" fill="white"/>
<path d="M42.2629 15.25H39.7363V17.25H42.2629V15.25Z" fill="white"/>
<path d="M66.0125 38.75H63.9912V41.25H66.0125V38.75Z" fill="white"/>
<path d="M42.2629 62.75H39.7363V64.75H42.2629V62.75Z" fill="white"/>
<path d="M18.0076 38.75H15.9863V41.25H18.0076V38.75Z" fill="white"/>
<path d="M39.7365 44.9375H42.2631V41.25H54.0118V38.75H42.2631V20.9375H39.7365V38.75H36.0098V41.25H39.7365V44.9375Z" fill="white"/>
</svg>
