<svg width="22" height="21" viewBox="0 0 22 21" fill="none" xmlns="http://www.w3.org/2000/svg">
<path fill-rule="evenodd" clip-rule="evenodd" d="M12.7383 1.52551H3.875C3.04657 1.52551 2.375 2.19708 2.375 3.02551V11.8888C2.375 12.7172 3.04657 13.3888 3.875 13.3888H5.56701V14.8888H3.875C2.21814 14.8888 0.875 13.5456 0.875 11.8888V3.02551C0.875 1.36866 2.21815 0.0255127 3.875 0.0255127H12.7383C14.3951 0.0255127 15.7383 1.36866 15.7383 3.02551V4.20502H14.2383V3.02551C14.2383 2.19708 13.5667 1.52551 12.7383 1.52551ZM9.63268 6.71646H18.2791C19.1374 6.71646 19.8333 7.41231 19.8333 8.27069V16.9171C19.8333 17.7754 19.1374 18.4713 18.2791 18.4713H9.63268C8.77431 18.4713 8.07846 17.7754 8.07846 16.9171V8.27069C8.07846 7.41231 8.77431 6.71646 9.63268 6.71646ZM6.52424 8.27069C6.52424 6.55394 7.91594 5.16224 9.63268 5.16224H18.2791C19.9958 5.16224 21.3875 6.55394 21.3875 8.27069V16.9171C21.3875 18.6338 19.9958 20.0255 18.2791 20.0255H9.63268C7.91594 20.0255 6.52424 18.6338 6.52424 16.9171V8.27069Z" fill="#636775"/>
</svg>
