<svg width="22" height="22" viewBox="0 0 22 22" fill="none" xmlns="http://www.w3.org/2000/svg">
<g clip-path="url(#clip0_518_952)">
<path d="M11 22.0001C17.0752 22.0001 22.0001 17.0752 22.0001 11C22.0001 4.92488 17.0752 0 11 0C4.92488 0 0 4.92488 0 11C0 17.0752 4.92488 22.0001 11 22.0001Z" fill="#F9CA0B"/>
<path fill-rule="evenodd" clip-rule="evenodd" d="M15.2154 11.699H11.154V11.699H7.17252C7.09129 11.699 7.05125 11.699 7.03152 11.6789C7.01235 11.6595 7.01235 11.6211 7.01235 11.5455V10.3566C7.01235 10.2628 7.0393 10.2296 7.13933 10.2296H15.2221C15.3091 10.2296 15.3491 10.2628 15.3491 10.3431C15.3823 10.7566 15.3823 11.172 15.3491 11.5855C15.3428 11.699 15.3019 11.699 15.2154 11.699ZM14.8955 8.74674C14.907 8.77678 14.907 8.81003 14.8955 8.84007V8.84011H14.9277C14.9142 8.88005 14.8474 8.8935 14.8474 8.8935H7.13883C7.01185 8.8935 7.01185 8.86655 7.01185 8.76652V6.39531C7.01185 6.30827 7.02535 6.26833 7.12538 6.26833H10.7125C11.0944 6.26474 11.4754 6.30509 11.8481 6.38857C12.587 6.56374 13.2739 6.91171 13.8523 7.4039C13.9675 7.49017 14.0708 7.59124 14.1596 7.7045C14.3481 7.89165 14.514 8.1002 14.654 8.3259C14.7473 8.45847 14.8281 8.59934 14.8955 8.74674ZM14.554 13.0885C14.6675 13.076 14.782 13.076 14.8955 13.0885H14.8954V13.0895C14.9479 13.116 14.9012 13.217 14.9012 13.217C14.4905 14.0211 13.8392 14.6762 13.0375 15.0932H12.9908C12.8365 15.1852 12.6733 15.2613 12.5036 15.3203C12.0385 15.4975 11.5499 15.6056 11.0535 15.6411C10.8933 15.6752 10.7298 15.6867 10.5663 15.6742H7.14608C7.01235 15.6742 7.01235 15.6473 7.01235 15.5405V13.2222C7.01235 13.0885 7.04604 13.0885 7.14608 13.0885H14.554ZM5.66997 13.1823V16.8762L5.66806 16.8776V16.8844H10.3041C10.8289 16.8916 11.3517 16.8497 11.8673 16.7574C12.4103 16.6514 12.9393 16.4834 13.4439 16.2567C13.6627 16.1553 13.8727 16.0328 14.0845 15.9092C14.136 15.8792 14.1877 15.849 14.2396 15.8191C14.2437 15.8168 14.2476 15.8142 14.2515 15.8115C14.4984 15.635 14.7351 15.4446 14.9604 15.2413C15.582 14.6794 16.0626 13.9792 16.3635 13.1972C16.3837 13.1097 16.4693 13.0534 16.5573 13.0702H17.8198C17.9204 13.0702 17.9952 13.0366 17.9952 12.9231C17.9952 12.9231 18.0072 12.1557 17.9932 11.8392C17.9899 11.7667 17.9079 11.7004 17.8353 11.7004H16.8988C16.7713 11.7004 16.7713 11.687 16.7713 11.5734C16.8079 11.1665 16.8079 10.7582 16.7713 10.3513C16.7646 10.231 16.7915 10.231 16.8849 10.231H17.8069C17.9141 10.231 17.9957 10.2041 17.9957 10.0973V9.00165C17.989 8.85448 17.9473 8.85448 17.7939 8.85448H16.5982C16.5048 8.87034 16.4154 8.80738 16.3986 8.71405C16.2617 8.35565 16.0867 8.013 15.8767 7.69197C15.6652 7.37529 15.426 7.07801 15.162 6.80361C14.81 6.45238 14.4151 6.1471 13.9865 5.89506C13.3395 5.51945 12.632 5.25633 11.8957 5.12023C11.5383 5.05444 11.1766 5.01426 10.8135 5H5.80366C5.66993 5 5.66993 5.02695 5.66993 5.13373V8.7342C5.66993 8.86118 5.64298 8.86118 5.54295 8.86118H4.10678C4 8.86118 4 8.88092 4 8.95451V10.13C4 10.2368 4.03319 10.2368 4.11353 10.2368H5.56315C5.66993 10.2368 5.66993 10.2565 5.66993 10.3368V11.5927C5.66993 11.7062 5.63628 11.7062 5.5497 11.7062H4.13539C4.09949 11.7062 4.06505 11.7205 4.03966 11.7459C4.01427 11.7712 4 11.8057 4 11.8416V12.9755C4 13.0823 4.03319 13.0823 4.11353 13.0823H5.56319C5.66997 13.0823 5.66997 13.0953 5.66997 13.1823Z" fill="white"/>
</g>
<defs>
<clipPath id="clip0_518_952">
<rect width="22" height="22" fill="white"/>
</clipPath>
</defs>
</svg>
