<svg width="48" height="49" viewBox="0 0 48 49" fill="none" xmlns="http://www.w3.org/2000/svg">
<path d="M44 24.5002H32L28 30.5002H20L16 24.5002H4" stroke="#636775" stroke-width="2" stroke-linecap="round" stroke-linejoin="round"/>
<path d="M10.9 10.7202L4 24.5002V36.5002C4 37.5611 4.42143 38.5785 5.17157 39.3287C5.92172 40.0788 6.93913 40.5002 8 40.5002H40C41.0609 40.5002 42.0783 40.0788 42.8284 39.3287C43.5786 38.5785 44 37.5611 44 36.5002V24.5002L37.1 10.7202C36.7688 10.0538 36.2584 9.49299 35.6259 9.1008C34.9935 8.70862 34.2642 8.50064 33.52 8.50024H14.48C13.7358 8.50064 13.0065 8.70862 12.3741 9.1008C11.7417 9.49299 11.2312 10.0538 10.9 10.7202V10.7202Z" stroke="#636775" stroke-width="2" stroke-linecap="round" stroke-linejoin="round"/>
</svg>
