<svg width="20" height="21" viewBox="0 0 20 21" fill="none" xmlns="http://www.w3.org/2000/svg">
<g clip-path="url(#clip0_32_1156)">
<path d="M4.69727 17.7129L2.57617 15.5918L15.3027 2.86523L17.4238 4.98633L4.69727 17.7129Z" fill="#FF1066"/>
<path fill-rule="evenodd" clip-rule="evenodd" d="M2.92969 17.3594C6.83398 21.2656 13.166 21.2656 17.0703 17.3594C20.9766 13.4551 20.9766 7.12305 17.0703 3.21875C13.166 -0.6875 6.83398 -0.6875 2.92969 3.21875C-0.976562 7.12305 -0.976562 13.4551 2.92969 17.3594ZM5.05078 15.2383C2.31641 12.5059 2.31641 8.07227 5.05078 5.33984C7.7832 2.60547 12.2168 2.60547 14.9492 5.33984C17.6836 8.07227 17.6836 12.5059 14.9492 15.2383C12.2168 17.9727 7.7832 17.9727 5.05078 15.2383Z" fill="#FF1066"/>
</g>
<defs>
<clipPath id="clip0_32_1156">
<rect width="20" height="20" fill="white" transform="translate(0 0.289062)"/>
</clipPath>
</defs>
</svg>
