<svg width="20" height="20" viewBox="0 0 20 20" fill="none" xmlns="http://www.w3.org/2000/svg">
<circle cx="10" cy="10" r="10" fill="#E0E3F5"/>
<path d="M8.64489 12.0071V11.8778C8.6482 11.2779 8.70455 10.8007 8.81392 10.446C8.92661 10.0914 9.0857 9.80634 9.29119 9.59091C9.49669 9.37216 9.74692 9.17164 10.0419 8.98935C10.2441 8.8634 10.4247 8.72585 10.5838 8.5767C10.7462 8.42424 10.8738 8.25521 10.9666 8.0696C11.0594 7.88068 11.1058 7.67022 11.1058 7.43821C11.1058 7.17637 11.0445 6.94934 10.9219 6.7571C10.7992 6.56487 10.6335 6.41572 10.4247 6.30966C10.2192 6.2036 9.98887 6.15057 9.73366 6.15057C9.49834 6.15057 9.27462 6.20194 9.0625 6.30469C8.85369 6.40412 8.67969 6.55658 8.54048 6.76207C8.40459 6.96425 8.32836 7.22112 8.31179 7.53267H6.5419C6.55848 6.90294 6.71094 6.37595 6.99929 5.9517C7.29096 5.52746 7.67543 5.20928 8.1527 4.99716C8.63329 4.78504 9.16359 4.67898 9.74361 4.67898C10.3767 4.67898 10.9335 4.79001 11.4141 5.01207C11.898 5.23414 12.2741 5.55066 12.5426 5.96165C12.8144 6.36932 12.9503 6.85322 12.9503 7.41335C12.9503 7.79119 12.889 8.12926 12.7663 8.42756C12.647 8.72585 12.4763 8.991 12.2543 9.22301C12.0322 9.45502 11.7687 9.66217 11.4638 9.84446C11.1953 10.0102 10.9749 10.1825 10.8026 10.3615C10.6335 10.5405 10.5076 10.7509 10.4247 10.9929C10.3452 11.2315 10.3037 11.5265 10.3004 11.8778V12.0071H8.64489ZM9.50994 15.1094C9.21165 15.1094 8.95478 15.0033 8.73935 14.7912C8.52391 14.5791 8.41619 14.3205 8.41619 14.0156C8.41619 13.7173 8.52391 13.4621 8.73935 13.25C8.95478 13.0379 9.21165 12.9318 9.50994 12.9318C9.80492 12.9318 10.0601 13.0379 10.2756 13.25C10.4943 13.4621 10.6037 13.7173 10.6037 14.0156C10.6037 14.2178 10.5523 14.4018 10.4496 14.5675C10.3501 14.7332 10.2176 14.8658 10.0518 14.9652C9.88944 15.0613 9.70881 15.1094 9.50994 15.1094Z" fill="#636775"/>
</svg>
