<svg width="22" height="22" viewBox="0 0 22 22" fill="none" xmlns="http://www.w3.org/2000/svg">
<g clip-path="url(#clip0_518_986)">
<path d="M7.7512 8.13551C3.9214 8.13551 0.818954 11.238 0.818954 15.0678C0.818954 18.8976 3.9214 22 7.7512 22C11.581 22 14.6834 18.8976 14.6834 15.0678C14.6834 11.238 11.5765 8.13551 7.7512 8.13551ZM8.31691 18.3767V18.7673C8.31691 19.0816 8.06549 19.3331 7.7512 19.3331C7.43691 19.3331 7.18548 19.0816 7.18548 18.7673V18.3722C6.85324 18.2735 6.55242 18.0894 6.30997 17.8335C6.09446 17.6045 6.10793 17.2498 6.33242 17.0343C6.5614 16.8188 6.9161 16.8322 7.13161 17.0567C7.29324 17.2273 7.51324 17.3216 7.74671 17.3216C8.21365 17.3216 8.59528 16.94 8.59528 16.4731C8.59528 16.0061 8.21365 15.6245 7.74671 15.6245C6.65569 15.6245 5.76671 14.7355 5.76671 13.6445C5.76671 12.751 6.36385 11.9922 7.18099 11.7498V11.3592C7.18099 11.0449 7.43242 10.7935 7.74671 10.7935C8.061 10.7935 8.31242 11.0449 8.31242 11.3592V11.7543C8.64467 11.8531 8.94549 12.0371 9.18793 12.2931C9.40344 12.522 9.38997 12.8767 9.16549 13.0922C8.93651 13.3078 8.58181 13.2943 8.3663 13.0698C8.20467 12.8992 7.98467 12.8049 7.7512 12.8049C7.28426 12.8049 6.90263 13.1865 6.90263 13.6535C6.90263 14.1204 7.28426 14.502 7.7512 14.502C8.84222 14.502 9.7312 15.391 9.7312 16.482C9.72671 17.3755 9.12957 18.1343 8.31691 18.3767ZM5.49732 0C2.71814 0 0.46875 2.24939 0.46875 5.02857C0.46875 6.73469 1.31732 8.23878 2.61487 9.1502C3.98875 7.95592 5.78467 7.23306 7.7512 7.23306C7.94875 7.23306 8.1463 7.24204 8.33936 7.25551C8.37977 5.57184 9.00834 4.03184 10.0275 2.84204C9.21038 1.15837 7.49079 0 5.49732 0ZM6.4312 4.0498C6.63324 4.0498 6.79936 4.21592 6.79936 4.41796C6.79936 4.62 6.63324 4.78612 6.4312 4.78612H5.61406V5.1498H6.4312C6.63324 5.1498 6.79936 5.31592 6.79936 5.51796C6.79936 5.72 6.63324 5.88612 6.4312 5.88612H5.61406V6.3351C5.61406 6.53714 5.44793 6.70326 5.24589 6.70326C5.04385 6.70326 4.87773 6.53714 4.87773 6.3351V5.88612H4.06059C3.85855 5.88612 3.69242 5.72 3.69242 5.51796C3.69242 5.31592 3.85855 5.1498 4.06059 5.1498H4.87773V4.78612H4.06059C3.85855 4.78612 3.69242 4.62 3.69242 4.41796C3.69242 4.21592 3.85855 4.0498 4.06059 4.0498H4.50508L3.69691 2.78816C3.58467 2.61755 3.63406 2.38857 3.80916 2.27633C3.97977 2.16408 4.20875 2.21347 4.32099 2.38857L5.25038 3.83429L6.17977 2.38857C6.29202 2.21796 6.51651 2.16857 6.69161 2.27633C6.86222 2.38857 6.91161 2.61306 6.80385 2.78816L5.9912 4.0498H6.4312Z" fill="#3D8AFF"/>
<path d="M15.3887 1.2749C12.0079 1.2749 9.26913 4.00021 9.24219 7.37654C12.3671 7.97817 14.832 10.4431 15.4426 13.568C18.8144 13.541 21.5352 10.7978 21.5352 7.42143C21.5352 4.02715 18.783 1.2749 15.3887 1.2749ZM17.5708 4.98796C17.4944 5.18102 17.2789 5.27531 17.0859 5.19898C16.9018 5.12715 16.7042 5.09123 16.5067 5.09123C15.8781 5.09123 15.3259 5.45939 15.0161 6.01613H16.601C16.8075 6.01613 16.9736 6.18225 16.9736 6.38878C16.9736 6.59531 16.8075 6.76143 16.601 6.76143H14.7736C14.7601 6.85123 14.7601 7.21939 14.7736 7.30919H16.6055C16.812 7.30919 16.9781 7.47531 16.9781 7.68184C16.9781 7.88837 16.812 8.05449 16.6055 8.05449H15.0206C15.3304 8.60674 15.8826 8.97939 16.5112 8.97939C16.6728 8.97939 16.8344 8.95694 16.9871 8.90756C17.1846 8.8447 17.3957 8.95694 17.4585 9.15449C17.5214 9.35205 17.4091 9.56307 17.2116 9.62592C16.9826 9.69776 16.7491 9.73368 16.5112 9.73368C15.4695 9.73368 14.5761 9.04225 14.1989 8.06347H13.5614C13.3548 8.06347 13.1887 7.89735 13.1887 7.69082C13.1887 7.48429 13.3548 7.31817 13.5614 7.31817H14.0238C14.0148 7.22837 14.0148 6.86021 14.0238 6.77041H13.5614C13.3548 6.77041 13.1887 6.60429 13.1887 6.39776C13.1887 6.19123 13.3548 6.02511 13.5614 6.02511H14.1989C14.5716 5.04633 15.4695 4.3549 16.5112 4.3549C16.803 4.3549 17.0904 4.40878 17.3597 4.51653C17.5483 4.57939 17.6426 4.7949 17.5708 4.98796Z" fill="#3D8AFF"/>
</g>
<defs>
<clipPath id="clip0_518_986">
<rect width="22" height="22" fill="white"/>
</clipPath>
</defs>
</svg>
