<svg width="23" height="19" viewBox="0 0 23 19" fill="none" xmlns="http://www.w3.org/2000/svg">
<g clip-path="url(#clip0_16_24)">
<path d="M17.1103 5.76976C16.7207 5.55483 16.2197 5.55483 15.7744 5.76976L12.6572 7.54289L10.542 8.67125L7.48047 10.4444C7.09082 10.6593 6.58984 10.6593 6.14453 10.4444L3.75098 9.04737C3.36133 8.83244 3.08301 8.40259 3.08301 7.91901V5.23244C3.08301 4.80259 3.30566 4.37274 3.75098 4.10408L6.14453 2.7608C6.53418 2.54588 7.03516 2.54588 7.48047 2.7608L9.87402 4.15782C10.2637 4.37274 10.542 4.80259 10.542 5.28617V7.05931L12.6572 5.87722V4.05035C12.6572 3.6205 12.4346 3.19065 11.9893 2.92199L7.53613 0.396622C7.14648 0.181697 6.64551 0.181697 6.20019 0.396622L1.63574 2.97573C1.19043 3.19065 0.967773 3.6205 0.967773 4.05035V9.1011C0.967773 9.53095 1.19043 9.9608 1.63574 10.2295L6.14453 12.7548C6.53418 12.9698 7.03516 12.9698 7.48047 12.7548L10.542 11.0354L12.6572 9.85334L15.7187 8.13394C16.1084 7.91901 16.6094 7.91901 17.0547 8.13394L19.4482 9.47722C19.8379 9.69214 20.1162 10.122 20.1162 10.6056V13.2921C20.1162 13.722 19.8936 14.1518 19.4482 14.4205L17.1103 15.7638C16.7207 15.9787 16.2197 15.9787 15.7744 15.7638L13.3809 14.4205C12.9912 14.2056 12.7129 13.7757 12.7129 13.2921V11.5727L10.5977 12.7548V14.528C10.5977 14.9578 10.8203 15.3877 11.2656 15.6563L15.7744 18.1817C16.1641 18.3966 16.665 18.3966 17.1103 18.1817L21.6191 15.6563C22.0088 15.4414 22.2871 15.0115 22.2871 14.528V9.42349C22.2871 8.99364 22.0644 8.56379 21.6191 8.29513L17.1103 5.76976Z" fill="#8247E5"/>
</g>
<defs>
<clipPath id="clip0_16_24">
<rect width="21.375" height="18" fill="white" transform="translate(0.967773 0.289154)"/>
</clipPath>
</defs>
</svg>
