<svg width="16" height="16" viewBox="0 0 16 16" fill="none" xmlns="http://www.w3.org/2000/svg">
<g clip-path="url(#clip0_57_881)">
<path fill-rule="evenodd" clip-rule="evenodd" d="M7.83398 0.439819C3.69846 0.439819 0.333984 3.80429 0.333984 7.93982C0.333984 12.0753 3.6984 15.4398 7.83392 15.4398C11.9694 15.4398 15.3339 12.0753 15.3339 7.93982C15.3339 3.80429 11.9694 0.439819 7.83398 0.439819ZM7.83398 13.6056C4.70986 13.6056 2.16822 11.0639 2.16822 7.93982C2.16822 4.81569 4.70986 2.27405 7.83398 2.27405C10.9581 2.27405 13.4998 4.81569 13.4998 7.93982C13.4998 11.0639 10.9581 13.6056 7.83398 13.6056ZM8.75085 7.11436H6.91663V11.9445H8.75085V7.11436ZM6.91663 3.93507H8.75085V5.70817H6.91663V3.93507Z" fill="#FF1066"/>
</g>
<defs>
<clipPath id="clip0_57_881">
<rect width="15" height="15" fill="white" transform="translate(0.333984 0.439819)"/>
</clipPath>
</defs>
</svg>
