<svg width="22" height="22" viewBox="0 0 22 22" fill="none" xmlns="http://www.w3.org/2000/svg">
<g clip-path="url(#clip0_518_927)">
<path d="M11 22.0001C17.0752 22.0001 22.0001 17.0752 22.0001 11C22.0001 4.92488 17.0752 0 11 0C4.92488 0 0 4.92488 0 11C0 17.0752 4.92488 22.0001 11 22.0001Z" fill="#555ABE"/>
<path d="M10.3906 15.1093C10.3906 14.9582 10.3883 14.807 10.3919 14.656C10.3931 14.6059 10.3765 14.591 10.329 14.5836C10.0326 14.5374 9.74569 14.4576 9.47344 14.3299C8.83734 14.0319 8.44241 13.5378 8.27993 12.8562C8.25893 12.768 8.23425 12.68 8.23884 12.5876C8.24632 12.4378 8.35877 12.3237 8.50918 12.3221C8.74637 12.3195 8.98371 12.3198 9.22089 12.322C9.35702 12.3232 9.46518 12.4226 9.49803 12.5725C9.52591 12.6996 9.56197 12.8239 9.61827 12.9417C9.74912 13.2156 9.96118 13.403 10.2457 13.499C10.6723 13.6428 11.1085 13.671 11.5449 13.5482C11.8596 13.4597 12.117 13.2844 12.2704 12.9856C12.409 12.7157 12.4172 12.4323 12.3217 12.1485C12.2469 11.9257 12.0719 11.7946 11.8674 11.6984C11.6456 11.5941 11.4091 11.5375 11.1715 11.4835C10.9178 11.4257 10.6585 11.4033 10.403 11.357C10.0412 11.2914 9.68564 11.2045 9.35198 11.0446C8.99791 10.8749 8.71016 10.6348 8.53851 10.2724C8.43989 10.0642 8.39139 9.84331 8.37038 9.61567C8.34616 9.35335 8.35632 9.09309 8.42996 8.83818C8.55822 8.3939 8.82245 8.04847 9.20027 7.7876C9.53409 7.55714 9.90778 7.42987 10.3065 7.37144C10.3439 7.36594 10.3497 7.35119 10.3495 7.31842C10.3485 7.03403 10.3466 6.74963 10.3501 6.46531C10.3515 6.34851 10.4008 6.24821 10.4898 6.17053C10.5434 6.1237 10.6086 6.1043 10.6789 6.10407C10.8723 6.10338 11.0656 6.10201 11.259 6.1043C11.4585 6.10667 11.6088 6.26044 11.6091 6.45905C11.6096 6.75643 11.6099 7.05381 11.6085 7.35119C11.6084 7.39015 11.6152 7.40612 11.6598 7.41078C12.5451 7.50397 13.2708 8.17665 13.4344 9.05322C13.4674 9.23029 13.3428 9.39116 13.1628 9.39452C12.9403 9.39865 12.7175 9.3975 12.4949 9.39483C12.3693 9.3933 12.2612 9.31156 12.2187 9.19079C12.1639 9.03519 12.0959 8.88684 11.9921 8.75713C11.8213 8.54363 11.5937 8.42759 11.3298 8.38008C10.982 8.31751 10.6345 8.31492 10.2936 8.42186C10.036 8.50268 9.82887 8.6508 9.72712 8.91037C9.62782 9.16375 9.63248 9.4234 9.72644 9.67731C9.79885 9.8731 9.95491 9.99204 10.1368 10.08C10.3566 10.1862 10.5918 10.2413 10.8303 10.2838C11.1738 10.3451 11.5226 10.3729 11.8638 10.4491C12.2072 10.5257 12.5424 10.6242 12.8496 10.8015C13.3017 11.0624 13.5597 11.4553 13.6429 11.967C13.689 12.2512 13.7002 12.5362 13.6469 12.8203C13.5366 13.4078 13.2175 13.8566 12.7243 14.1856C12.4175 14.3903 12.0783 14.5163 11.7167 14.5816C11.6605 14.5918 11.649 14.6121 11.6495 14.6647C11.652 14.9539 11.6527 15.2432 11.6497 15.5324C11.6485 15.6476 11.6007 15.7466 11.5152 15.8249C11.4598 15.8754 11.3919 15.8955 11.318 15.8958C11.1246 15.8962 10.9312 15.899 10.7379 15.8954C10.537 15.8916 10.3909 15.7385 10.3905 15.5383C10.3903 15.3954 10.3906 15.2524 10.3906 15.1093Z" fill="#FEFEFE"/>
<path d="M18.3348 11.0926C18.3055 12.6702 17.8367 14.1026 16.8984 15.3736C16.0633 16.5052 14.9828 17.3209 13.6719 17.8311C13.5387 17.8822 13.4042 17.9299 13.2684 17.974C13.2183 17.9906 13.1749 18.0228 13.1179 18.0241C12.9757 18.0274 12.8494 17.9119 12.8343 17.7571C12.8242 17.6534 12.8304 17.5492 12.83 17.4452C12.8297 17.3218 12.8279 17.1981 12.8339 17.0749C12.8427 16.8971 12.9379 16.7768 13.1018 16.7151C13.906 16.4127 14.62 15.9676 15.2361 15.368C15.9138 14.7086 16.401 13.9285 16.7162 13.0377C16.9575 12.3557 17.0849 11.6549 17.0719 10.9318C17.0471 9.5635 16.6138 8.33585 15.772 7.25739C15.0779 6.36822 14.197 5.72793 13.1387 5.33598C12.9918 5.28151 12.8276 5.06564 12.8295 4.904C12.832 4.69928 12.8275 4.49448 12.8319 4.28983C12.834 4.19091 12.8828 4.10589 12.9514 4.0376C13.0185 3.97076 13.1053 3.96228 13.1924 3.99161C13.594 4.1272 13.988 4.28189 14.3622 4.48241C16.1857 5.45973 17.4086 6.93465 18.0214 8.91182C18.1848 9.43937 18.2799 9.9805 18.3164 10.5319C18.3287 10.7187 18.3356 10.9053 18.3348 11.0926ZM3.66819 10.929C3.69607 9.37772 4.15204 7.96628 5.06022 6.70609C5.76117 5.73351 6.65438 4.98497 7.72834 4.45247C8.05127 4.29277 8.38579 4.15764 8.72903 4.04822C8.77364 4.03393 8.81054 4.00276 8.85966 3.99772C9.01457 3.98199 9.15314 4.09718 9.16804 4.26188C9.17461 4.33444 9.17316 4.40793 9.17308 4.48104C9.17285 4.63534 9.17537 4.78988 9.16896 4.94403C9.16155 5.12171 9.06591 5.24256 8.90213 5.30451C8.4263 5.48448 7.97607 5.71319 7.55807 6.00339C6.49817 6.73917 5.74795 7.71336 5.30727 8.92672C5.15097 9.35709 5.03731 9.7974 4.97887 10.2514C4.92344 10.6787 4.91497 11.1109 4.95358 11.5401C5.04411 12.5421 5.36173 13.4666 5.90776 14.3107C6.47892 15.1937 7.23104 15.8816 8.16177 16.3729C8.39722 16.4969 8.6408 16.6049 8.89082 16.696C9.02939 16.7467 9.17209 16.9469 9.17301 17.0935C9.17423 17.2868 9.17239 17.4802 9.17293 17.6736C9.17323 17.7736 9.12618 17.8557 9.06598 17.9271C8.99983 18.0057 8.90687 18.0195 8.81168 17.9878C8.349 17.8341 7.89853 17.6514 7.47152 17.4143C5.97964 16.5859 4.90164 15.3846 4.23469 13.8145C3.99811 13.2576 3.8406 12.6779 3.75031 12.0801C3.69266 11.6991 3.66521 11.3143 3.66819 10.929Z" fill="#FEFEFE"/>
</g>
<defs>
<clipPath id="clip0_518_927">
<rect width="22" height="22" fill="white"/>
</clipPath>
</defs>
</svg>
