<svg width="22" height="22" viewBox="0 0 22 22" fill="none" xmlns="http://www.w3.org/2000/svg">
<g clip-path="url(#clip0_518_908)">
<path d="M22 11C22 16.3864 18.1284 20.8686 13.0159 21.8154C12.351 21.9386 11.6762 22.0004 11 22C10.243 22 9.504 21.9237 8.79012 21.7778C3.77412 20.755 0 16.3182 0 11C0 8.06773 1.14761 5.40259 3.01847 3.4311C3.12673 3.31672 3.2375 3.20474 3.3507 3.09525C5.33027 1.17902 8.02729 0 11 0C13.9727 0 16.6697 1.17902 18.6493 3.09525C18.6959 3.1403 18.7422 3.18579 18.788 3.23172C20.7729 5.22118 22 7.96761 22 11Z" fill="#1BA27A"/>
<path d="M13.0173 9.35984V6.90843H18.7894V3.09521H3.01989V6.90839H8.79154V9.36925C4.12935 9.60764 0.636719 10.5846 0.636719 11.7538C0.636719 12.9229 4.12935 13.8999 8.79154 14.1384V21.7777C9.50543 21.9236 10.2444 22 11.0014 22C11.6902 22 12.3641 21.9367 13.0173 21.8155V14.1478C17.7765 13.9269 21.3661 12.9391 21.3661 11.7538C21.3661 10.5685 17.7765 9.58075 13.0173 9.35984ZM11.0014 13.2606C5.80087 13.2606 1.585 12.4771 1.585 11.5105C1.585 10.6853 4.65735 9.99337 8.79159 9.80882V12.6118C9.49136 12.7128 10.1975 12.7635 10.9045 12.7636C11.6115 12.7635 12.3176 12.7128 13.0174 12.6118V9.80027C17.249 9.97223 20.4175 10.6722 20.4175 11.5104C20.4174 12.4771 16.2015 13.2606 11.0014 13.2606Z" fill="#F0EFEB"/>
</g>
<defs>
<clipPath id="clip0_518_908">
<rect width="22" height="22" fill="white"/>
</clipPath>
</defs>
</svg>
